<?xml version="1.0" encoding="utf-8"?>
<!-- Generator: Adobe Illustrator 16.0.0, SVG Export Plug-In . SVG Version: 6.00 Build 0)  -->
<!DOCTYPE svg PUBLIC "-//W3C//DTD SVG 1.1//EN" "http://www.w3.org/Graphics/SVG/1.1/DTD/svg11.dtd">
<svg version="1.1" id="Capa_2" xmlns="http://www.w3.org/2000/svg" xmlns:xlink="http://www.w3.org/1999/xlink" x="0px" y="0px"
	 width="300px" height="112px" viewBox="0 0 300 112" enable-background="new 0 0 300 112" xml:space="preserve">
<rect x="127.468" y="13.917" fill="#1E2959" width="8.729" height="42.884"/>
<g>
	<defs>
		<rect id="SVGID_1_" x="1" width="295.5" height="110.807"/>
	</defs>
	<clipPath id="SVGID_2_">
		<use xlink:href="#SVGID_1_"  overflow="visible"/>
	</clipPath>
	<path clip-path="url(#SVGID_2_)" fill="#1E2959" d="M156.551,17.512h-7.484v9.214h-4.739h-1.559v7.213h5.55v13.999
		c0,5.808,3.743,9.292,9.728,9.292c2.434,0,3.929-0.429,4.675-0.734V49.77c-0.435,0.125-1.558,0.247-2.556,0.247
		c-2.37,0-3.615-0.857-3.615-3.485V33.938h6.171v-7.213h-6.171V17.512z"/>
	<path clip-path="url(#SVGID_2_)" fill="#C63639" d="M177.024,31.189v-4.462h-8.046v30.074h8.294V43.047
		c0-6.48,3.68-8.496,7.92-8.496c0.749,0,1.559,0.06,2.494,0.243v-8.191c-0.624-0.061-1.247-0.123-1.933-0.123
		C183.136,26.48,178.896,27.214,177.024,31.189"/>
	<path clip-path="url(#SVGID_2_)" fill="#C63639" d="M206.476,50.75c-4.115,0-7.545-2.874-7.73-6.847h21.948
		c0-0.122,0.126-1.344,0.126-2.507c0-9.66-5.675-15.587-15.153-15.587c-7.856,0-15.092,6.234-15.092,15.833
		c0,10.147,7.422,16.077,15.84,16.077c7.277,0,12.029-4.047,13.759-8.995l-6.928-2.072C212.174,49.074,210.1,50.75,206.476,50.75
		 M205.791,32.41c4.737,0,6.734,2.934,6.858,5.931h-13.719C199.12,35.589,201.486,32.41,205.791,32.41"/>
	<path clip-path="url(#SVGID_2_)" fill="#1E2959" d="M243.912,25.93c-3.305,0-6.983,1.407-8.854,4.524v-3.729h-8.045v30.075h8.295
		V39.501c0-3.486,2.117-6.234,5.736-6.234c3.991,0,5.674,2.628,5.674,5.99v17.543h8.296V37.85
		C255.014,31.25,251.521,25.93,243.912,25.93"/>
	<path clip-path="url(#SVGID_2_)" fill="#1E2959" d="M291.793,51.362V13.001h-8.17v16.72c-0.874-1.589-3.37-3.728-8.668-3.728
		c-8.669,0-14.718,6.907-14.718,15.708c0,9.109,6.237,15.834,14.965,15.834c4.118,0,7.235-1.835,8.607-4.219
		c0,1.407,0.186,2.875,0.311,3.485h7.917C291.916,55.579,291.793,53.378,291.793,51.362 M276.201,50.261
		c-4.365,0-7.606-3.179-7.606-8.56c0-5.379,3.366-8.434,7.606-8.434c4.241,0,7.547,2.995,7.547,8.375
		C283.748,47.082,280.442,50.261,276.201,50.261"/>
	<path clip-path="url(#SVGID_2_)" fill="#1E2959" d="M55.858,6.94c-6.576,0-12.844,1.327-18.572,3.699l7.944,7.574
		c3.383-0.962,6.94-1.512,10.627-1.512c21.469,0,38.938,17.467,38.938,38.937c0,21.468-17.469,38.939-38.938,38.939
		c-21.468,0-38.936-17.471-38.936-38.939c0-3.34,0.467-6.566,1.262-9.661l-7.849-7.482C8.317,43.837,7.16,49.599,7.16,55.639
		c0,26.851,21.847,48.697,48.698,48.697c26.853,0,48.7-21.846,48.7-48.697C104.558,28.787,82.711,6.94,55.858,6.94"/>
	
		<rect x="3.834" y="15.376" transform="matrix(0.69 -0.7238 0.7238 0.69 -8.0024 18.4147)" clip-path="url(#SVGID_2_)" fill="#F4D33B" width="27.33" height="6.349"/>
	
		<rect x="12.576" y="23.709" transform="matrix(0.69 -0.7238 0.7238 0.69 -11.325 27.3266)" clip-path="url(#SVGID_2_)" fill="#62ADA2" width="27.329" height="6.351"/>
	
		<rect x="21.318" y="32.044" transform="matrix(0.69 -0.7238 0.7238 0.69 -14.6472 36.2365)" clip-path="url(#SVGID_2_)" fill="#C63639" width="27.33" height="6.35"/>
	<rect x="128.563" y="69.355" clip-path="url(#SVGID_2_)" fill="#1E2959" width="2.005" height="9.115"/>
	<path clip-path="url(#SVGID_2_)" fill="#1E2959" d="M132.413,71.492h1.98v0.988c0.455-0.586,1.04-1.121,2.043-1.121
		c1.497,0,2.37,0.994,2.37,2.594v4.518h-1.979V74.58c0-0.939-0.443-1.42-1.197-1.42c-0.756,0-1.237,0.48-1.237,1.42v3.891h-1.98
		V71.492z"/>
	<path clip-path="url(#SVGID_2_)" fill="#1E2959" d="M139.777,77.547l0.846-1.305c0.755,0.549,1.55,0.836,2.202,0.836
		c0.571,0,0.833-0.209,0.833-0.521v-0.025c0-0.43-0.677-0.572-1.446-0.807c-0.977-0.287-2.083-0.742-2.083-2.096v-0.025
		c0-1.422,1.145-2.219,2.552-2.219c0.885,0,1.85,0.301,2.604,0.811l-0.754,1.367c-0.692-0.402-1.38-0.652-1.889-0.652
		c-0.481,0-0.727,0.209-0.727,0.484v0.025c0,0.389,0.661,0.572,1.418,0.832c0.977,0.324,2.109,0.795,2.109,2.07v0.027
		c0,1.547-1.16,2.254-2.669,2.254C141.795,78.604,140.702,78.275,139.777,77.547"/>
	<path clip-path="url(#SVGID_2_)" fill="#1E2959" d="M146.919,76.494v-3.309h-0.833v-1.693h0.833v-1.783h1.979v1.783h1.64v1.693
		h-1.64v2.98c0,0.457,0.196,0.678,0.639,0.678c0.364,0,0.689-0.092,0.975-0.246v1.588c-0.417,0.248-0.898,0.402-1.562,0.402
		C147.74,78.588,146.919,78.105,146.919,76.494"/>
	<path clip-path="url(#SVGID_2_)" fill="#1E2959" d="M151.834,68.967h2.083v1.758h-2.083V68.967z M151.886,71.492h1.979v6.979
		h-1.979V71.492z"/>
	<path clip-path="url(#SVGID_2_)" fill="#1E2959" d="M155.803,76.494v-3.309h-0.834v-1.693h0.834v-1.783h1.979v1.783h1.641v1.693
		h-1.641v2.98c0,0.457,0.196,0.678,0.639,0.678c0.363,0,0.689-0.092,0.976-0.246v1.588c-0.418,0.248-0.899,0.402-1.562,0.402
		C156.623,78.588,155.803,78.105,155.803,76.494"/>
	<path clip-path="url(#SVGID_2_)" fill="#1E2959" d="M160.65,76.01v-4.518h1.979v3.895c0,0.936,0.441,1.418,1.196,1.418
		c0.756,0,1.237-0.482,1.237-1.418v-3.895h1.979v6.979h-1.979v-0.99c-0.456,0.586-1.041,1.123-2.045,1.123
		C161.523,78.604,160.65,77.609,160.65,76.01"/>
	<path clip-path="url(#SVGID_2_)" fill="#1E2959" d="M168.972,76.494v-3.309h-0.835v-1.693h0.835v-1.783h1.979v1.783h1.641v1.693
		h-1.641v2.98c0,0.457,0.196,0.678,0.64,0.678c0.363,0,0.688-0.092,0.975-0.246v1.588c-0.417,0.248-0.898,0.402-1.562,0.402
		C169.792,78.588,168.972,78.105,168.972,76.494"/>
	<path clip-path="url(#SVGID_2_)" fill="#1E2959" d="M173.374,75.02v-0.025c0-2.006,1.613-3.635,3.787-3.635
		c2.162,0,3.766,1.605,3.766,3.609v0.025c0,2.006-1.614,3.635-3.79,3.635C174.976,78.629,173.374,77.025,173.374,75.02
		 M178.974,75.02v-0.025c0-1.027-0.743-1.928-1.837-1.928c-1.133,0-1.811,0.873-1.811,1.902v0.025c0,1.031,0.742,1.928,1.835,1.928
		C178.294,76.922,178.974,76.049,178.974,75.02"/>
	<path clip-path="url(#SVGID_2_)" fill="#1E2959" d="M185.488,71.492h1.98v1.004c0.479-0.65,1.145-1.137,2.173-1.137
		c1.628,0,3.179,1.279,3.179,3.609v0.025c0,2.33-1.525,3.609-3.179,3.609c-1.054,0-1.707-0.484-2.173-1.045v2.996h-1.98V71.492z
		 M190.839,74.994v-0.025c0-1.16-0.781-1.926-1.706-1.926c-0.924,0-1.691,0.766-1.691,1.926v0.025c0,1.16,0.768,1.928,1.691,1.928
		C190.058,76.922,190.839,76.164,190.839,74.994"/>
	<path clip-path="url(#SVGID_2_)" fill="#1E2959" d="M193.574,76.465v-0.025c0-1.521,1.158-2.227,2.814-2.227
		c0.703,0,1.21,0.117,1.704,0.289v-0.119c0-0.82-0.506-1.277-1.495-1.277c-0.757,0-1.29,0.145-1.929,0.379l-0.494-1.512
		c0.769-0.336,1.523-0.559,2.709-0.559c1.079,0,1.859,0.285,2.355,0.781c0.521,0.521,0.754,1.289,0.754,2.227v4.049h-1.912v-0.754
		c-0.482,0.533-1.146,0.887-2.108,0.887C194.656,78.604,193.574,77.848,193.574,76.465 M198.12,76.01v-0.352
		c-0.34-0.156-0.783-0.26-1.265-0.26c-0.846,0-1.366,0.338-1.366,0.961v0.029c0,0.535,0.441,0.846,1.081,0.846
		C197.495,77.234,198.12,76.729,198.12,76.01"/>
	<path clip-path="url(#SVGID_2_)" fill="#1E2959" d="M201.521,71.492h1.981v1.404c0.403-0.961,1.055-1.588,2.226-1.537v2.072h-0.105
		c-1.314,0-2.12,0.795-2.12,2.461v2.578h-1.981V71.492z"/>
	<path clip-path="url(#SVGID_2_)" fill="#1E2959" d="M206.099,76.465v-0.025c0-1.521,1.157-2.227,2.812-2.227
		c0.703,0,1.211,0.117,1.705,0.289v-0.119c0-0.82-0.507-1.277-1.497-1.277c-0.756,0-1.288,0.145-1.928,0.379l-0.494-1.512
		c0.769-0.336,1.524-0.559,2.708-0.559c1.081,0,1.861,0.285,2.355,0.781c0.523,0.521,0.757,1.289,0.757,2.227v4.049h-1.914v-0.754
		c-0.481,0.533-1.146,0.887-2.109,0.887C207.18,78.604,206.099,77.848,206.099,76.465 M210.643,76.01v-0.352
		c-0.34-0.156-0.782-0.26-1.266-0.26c-0.844,0-1.365,0.338-1.365,0.961v0.029c0,0.535,0.443,0.846,1.081,0.846
		C210.018,77.234,210.643,76.729,210.643,76.01"/>
	<rect x="217.446" y="68.967" clip-path="url(#SVGID_2_)" fill="#1E2959" width="1.979" height="9.504"/>
	<path clip-path="url(#SVGID_2_)" fill="#1E2959" d="M220.615,76.465v-0.025c0-1.521,1.158-2.227,2.813-2.227
		c0.704,0,1.211,0.117,1.704,0.289v-0.119c0-0.82-0.506-1.277-1.495-1.277c-0.756,0-1.288,0.145-1.928,0.379l-0.495-1.512
		c0.768-0.336,1.524-0.559,2.709-0.559c1.079,0,1.859,0.285,2.355,0.781c0.522,0.521,0.754,1.289,0.754,2.227v4.049h-1.911v-0.754
		c-0.482,0.533-1.146,0.887-2.109,0.887C221.696,78.604,220.615,77.848,220.615,76.465 M225.16,76.01v-0.352
		c-0.339-0.156-0.782-0.26-1.264-0.26c-0.845,0-1.367,0.338-1.367,0.961v0.029c0,0.535,0.441,0.846,1.081,0.846
		C224.535,77.234,225.16,76.729,225.16,76.01"/>
	<path clip-path="url(#SVGID_2_)" fill="#C63639" d="M128.473,86.383h4.167c1.158,0,2.057,0.326,2.655,0.928
		c0.509,0.506,0.782,1.223,0.782,2.084v0.023c0,1.473-0.794,2.396-1.955,2.826l2.228,3.254h-2.344l-1.954-2.916h-1.575v2.916h-2.005
		V86.383z M132.508,90.811c0.977,0,1.538-0.52,1.538-1.287v-0.025c0-0.859-0.6-1.301-1.575-1.301h-1.993v2.613H132.508z"/>
	<path clip-path="url(#SVGID_2_)" fill="#C63639" d="M137.015,92.051v-0.027c0-1.994,1.419-3.635,3.45-3.635
		c2.331,0,3.397,1.812,3.397,3.789c0,0.158-0.012,0.34-0.025,0.521h-4.858c0.197,0.898,0.822,1.369,1.707,1.369
		c0.665,0,1.147-0.209,1.693-0.717l1.134,1.002c-0.652,0.807-1.589,1.303-2.853,1.303C138.564,95.656,137.015,94.186,137.015,92.051
		 M141.936,91.463c-0.117-0.885-0.637-1.482-1.471-1.482c-0.821,0-1.354,0.584-1.51,1.482H141.936z"/>
	<path clip-path="url(#SVGID_2_)" fill="#C63639" d="M144.486,94.576l0.846-1.305c0.756,0.547,1.551,0.834,2.202,0.834
		c0.573,0,0.834-0.207,0.834-0.521v-0.023c0-0.432-0.679-0.574-1.446-0.807c-0.977-0.289-2.083-0.744-2.083-2.098v-0.025
		c0-1.42,1.146-2.217,2.552-2.217c0.884,0,1.848,0.301,2.605,0.809l-0.757,1.367c-0.688-0.402-1.378-0.652-1.887-0.652
		c-0.482,0-0.729,0.209-0.729,0.484v0.025c0,0.389,0.663,0.572,1.419,0.832c0.977,0.326,2.109,0.797,2.109,2.072v0.027
		c0,1.547-1.159,2.252-2.669,2.252C146.505,95.631,145.412,95.305,144.486,94.576"/>
	<path clip-path="url(#SVGID_2_)" fill="#C63639" d="M151.37,85.994h2.083v1.756h-2.083V85.994z M151.422,88.518h1.979v6.98h-1.979
		V88.518z"/>
	<rect x="155.067" y="85.994" clip-path="url(#SVGID_2_)" fill="#C63639" width="1.979" height="9.504"/>
	<path clip-path="url(#SVGID_2_)" fill="#C63639" d="M158.66,85.994h2.085v1.756h-2.085V85.994z M158.712,88.518h1.98v6.98h-1.98
		V88.518z"/>
	<path clip-path="url(#SVGID_2_)" fill="#C63639" d="M161.93,92.051v-0.027c0-1.994,1.419-3.635,3.451-3.635
		c2.33,0,3.396,1.812,3.396,3.789c0,0.158-0.013,0.34-0.023,0.521h-4.859c0.197,0.898,0.82,1.369,1.708,1.369
		c0.663,0,1.145-0.209,1.691-0.717l1.134,1.002c-0.652,0.807-1.591,1.303-2.853,1.303C163.48,95.656,161.93,94.186,161.93,92.051
		 M166.852,91.463c-0.118-0.885-0.638-1.482-1.471-1.482c-0.822,0-1.354,0.584-1.51,1.482H166.852z"/>
	<path clip-path="url(#SVGID_2_)" fill="#C63639" d="M170.011,88.521h1.979v0.986c0.456-0.584,1.04-1.119,2.043-1.119
		c1.497,0,2.37,0.992,2.37,2.592v4.518h-1.979v-3.891c0-0.939-0.442-1.42-1.197-1.42c-0.756,0-1.237,0.48-1.237,1.42v3.891h-1.979
		V88.521z"/>
	<path clip-path="url(#SVGID_2_)" fill="#C63639" d="M177.559,92.047v-0.023c0-1.994,1.522-3.635,3.659-3.635
		c1.313,0,2.134,0.443,2.785,1.174l-1.21,1.301c-0.443-0.469-0.886-0.771-1.589-0.771c-0.989,0-1.692,0.875-1.692,1.906v0.025
		c0,1.066,0.688,1.926,1.77,1.926c0.665,0,1.12-0.285,1.603-0.74l1.159,1.17c-0.678,0.742-1.46,1.277-2.853,1.277
		C179.095,95.656,177.559,94.041,177.559,92.047"/>
	<path clip-path="url(#SVGID_2_)" fill="#C63639" d="M185.007,85.994h2.082v1.756h-2.082V85.994z M185.059,88.518h1.979v6.98h-1.979
		V88.518z"/>
	<path clip-path="url(#SVGID_2_)" fill="#C63639" d="M188.211,93.494v-0.027c0-1.521,1.158-2.227,2.813-2.227
		c0.703,0,1.211,0.117,1.705,0.289v-0.117c0-0.822-0.507-1.277-1.496-1.277c-0.757,0-1.29,0.143-1.928,0.375l-0.495-1.508
		c0.769-0.338,1.523-0.559,2.708-0.559c1.08,0,1.86,0.283,2.354,0.779c0.523,0.521,0.757,1.287,0.757,2.227v4.049h-1.913v-0.752
		c-0.481,0.531-1.146,0.885-2.108,0.885C189.293,95.631,188.211,94.875,188.211,93.494 M192.756,93.039v-0.354
		c-0.34-0.156-0.783-0.26-1.264-0.26c-0.847,0-1.367,0.34-1.367,0.963v0.029c0,0.533,0.442,0.844,1.081,0.844
		C192.131,94.262,192.756,93.756,192.756,93.039"/>
	<path clip-path="url(#SVGID_2_)" fill="#1E2959" d="M199.051,93.494v-0.027c0-1.521,1.158-2.227,2.813-2.227
		c0.703,0,1.21,0.117,1.704,0.289v-0.117c0-0.822-0.505-1.277-1.496-1.277c-0.755,0-1.288,0.143-1.928,0.375l-0.494-1.508
		c0.769-0.338,1.523-0.559,2.708-0.559c1.081,0,1.86,0.283,2.355,0.779c0.522,0.521,0.756,1.287,0.756,2.227v4.049h-1.912v-0.752
		c-0.483,0.531-1.147,0.885-2.11,0.885C200.132,95.631,199.051,94.875,199.051,93.494 M203.596,93.039v-0.354
		c-0.339-0.156-0.783-0.26-1.264-0.26c-0.846,0-1.368,0.34-1.368,0.963v0.029c0,0.533,0.443,0.844,1.081,0.844
		C202.971,94.262,203.596,93.756,203.596,93.039"/>
	<path clip-path="url(#SVGID_2_)" fill="#1E2959" d="M206.998,88.521h1.981v0.986c0.454-0.584,1.038-1.119,2.041-1.119
		c1.498,0,2.37,0.992,2.37,2.592v4.518h-1.978v-3.891c0-0.939-0.444-1.42-1.198-1.42c-0.755,0-1.235,0.48-1.235,1.42v3.891h-1.981
		V88.521z"/>
	<path clip-path="url(#SVGID_2_)" fill="#1E2959" d="M215.188,93.521v-3.309h-0.836v-1.691h0.836v-1.783h1.979v1.783h1.64v1.691
		h-1.64v2.982c0,0.455,0.195,0.678,0.639,0.678c0.363,0,0.689-0.092,0.976-0.248v1.588c-0.417,0.248-0.899,0.402-1.563,0.402
		C216.008,95.615,215.188,95.135,215.188,93.521"/>
	<path clip-path="url(#SVGID_2_)" fill="#1E2959" d="M219.622,92.051v-0.027c0-1.994,1.418-3.635,3.45-3.635
		c2.329,0,3.397,1.812,3.397,3.789c0,0.158-0.012,0.34-0.024,0.521h-4.858c0.197,0.898,0.82,1.369,1.707,1.369
		c0.663,0,1.147-0.209,1.691-0.717l1.134,1.002c-0.65,0.807-1.59,1.303-2.852,1.303C221.172,95.656,219.622,94.186,219.622,92.051
		 M224.544,91.463c-0.118-0.885-0.639-1.482-1.472-1.482c-0.822,0-1.354,0.584-1.51,1.482H224.544z"/>
	<path clip-path="url(#SVGID_2_)" fill="#1E2959" d="M231.281,86.383h3.557c2.861,0,4.843,1.969,4.843,4.533v0.025
		c0,2.564-1.981,4.557-4.843,4.557h-3.557V86.383z M234.838,93.689c1.64,0,2.745-1.107,2.745-2.721v-0.027
		c0-1.613-1.105-2.744-2.745-2.744h-1.551v5.492H234.838z"/>
	<path clip-path="url(#SVGID_2_)" fill="#1E2959" d="M240.701,92.051v-0.027c0-1.994,1.418-3.635,3.449-3.635
		c2.331,0,3.397,1.812,3.397,3.789c0,0.158-0.011,0.34-0.024,0.521h-4.858c0.198,0.898,0.82,1.369,1.707,1.369
		c0.665,0,1.147-0.209,1.692-0.717l1.134,1.002c-0.65,0.807-1.59,1.303-2.853,1.303C242.25,95.656,240.701,94.186,240.701,92.051
		 M245.622,91.463c-0.117-0.885-0.638-1.482-1.472-1.482c-0.821,0-1.353,0.584-1.51,1.482H245.622z"/>
	<path clip-path="url(#SVGID_2_)" fill="#1E2959" d="M248.173,94.576l0.846-1.305c0.755,0.547,1.55,0.834,2.202,0.834
		c0.571,0,0.833-0.207,0.833-0.521v-0.023c0-0.432-0.677-0.574-1.445-0.807c-0.978-0.289-2.084-0.744-2.084-2.098v-0.025
		c0-1.42,1.146-2.217,2.552-2.217c0.885,0,1.849,0.301,2.604,0.809l-0.755,1.367c-0.689-0.402-1.379-0.652-1.889-0.652
		c-0.479,0-0.727,0.209-0.727,0.484v0.025c0,0.389,0.661,0.572,1.418,0.832c0.978,0.326,2.109,0.797,2.109,2.072v0.027
		c0,1.547-1.159,2.252-2.669,2.252C250.19,95.631,249.099,95.305,248.173,94.576"/>
	<path clip-path="url(#SVGID_2_)" fill="#1E2959" d="M254.63,93.494v-0.027c0-1.521,1.157-2.227,2.812-2.227
		c0.703,0,1.211,0.117,1.705,0.289v-0.117c0-0.822-0.507-1.277-1.496-1.277c-0.756,0-1.289,0.143-1.928,0.375l-0.494-1.508
		c0.768-0.338,1.523-0.559,2.707-0.559c1.081,0,1.861,0.283,2.355,0.779c0.523,0.521,0.757,1.287,0.757,2.227v4.049h-1.912v-0.752
		c-0.483,0.531-1.146,0.885-2.11,0.885C255.711,95.631,254.63,94.875,254.63,93.494 M259.174,93.039v-0.354
		c-0.339-0.156-0.782-0.26-1.265-0.26c-0.845,0-1.366,0.34-1.366,0.963v0.029c0,0.533,0.443,0.844,1.081,0.844
		C258.55,94.262,259.174,93.756,259.174,93.039"/>
	<path clip-path="url(#SVGID_2_)" fill="#1E2959" d="M261.984,94.576l0.846-1.305c0.755,0.547,1.551,0.834,2.201,0.834
		c0.572,0,0.834-0.207,0.834-0.521v-0.023c0-0.432-0.677-0.574-1.445-0.807c-0.978-0.289-2.084-0.744-2.084-2.098v-0.025
		c0-1.42,1.145-2.217,2.552-2.217c0.886,0,1.849,0.301,2.604,0.809l-0.756,1.367c-0.689-0.402-1.379-0.652-1.888-0.652
		c-0.48,0-0.728,0.209-0.728,0.484v0.025c0,0.389,0.662,0.572,1.419,0.832c0.977,0.326,2.108,0.797,2.108,2.072v0.027
		c0,1.547-1.158,2.252-2.669,2.252C264.003,95.631,262.909,95.305,261.984,94.576"/>
	<path clip-path="url(#SVGID_2_)" fill="#1E2959" d="M269.127,93.521v-3.309h-0.834v-1.691h0.834v-1.783h1.979v1.783h1.641v1.691
		h-1.641v2.982c0,0.455,0.196,0.678,0.64,0.678c0.363,0,0.688-0.092,0.975-0.248v1.588c-0.417,0.248-0.898,0.402-1.562,0.402
		C269.947,95.615,269.127,95.135,269.127,93.521"/>
	<path clip-path="url(#SVGID_2_)" fill="#1E2959" d="M274.071,88.521h1.981v1.404c0.402-0.963,1.055-1.588,2.226-1.537v2.072h-0.105
		c-1.314,0-2.12,0.793-2.12,2.459v2.578h-1.981V88.521z"/>
	<path clip-path="url(#SVGID_2_)" fill="#1E2959" d="M278.872,92.051v-0.027c0-1.994,1.418-3.635,3.449-3.635
		c2.33,0,3.397,1.812,3.397,3.789c0,0.158-0.012,0.34-0.023,0.521h-4.859c0.197,0.898,0.82,1.369,1.708,1.369
		c0.663,0,1.145-0.209,1.691-0.717l1.134,1.002c-0.651,0.807-1.591,1.303-2.852,1.303C280.421,95.656,278.872,94.186,278.872,92.051
		 M283.793,91.463c-0.119-0.885-0.638-1.482-1.472-1.482c-0.821,0-1.354,0.584-1.509,1.482H283.793z"/>
	<path clip-path="url(#SVGID_2_)" fill="#1E2959" d="M286.342,94.576l0.844-1.305c0.756,0.547,1.551,0.834,2.202,0.834
		c0.571,0,0.834-0.207,0.834-0.521v-0.023c0-0.432-0.678-0.574-1.445-0.807c-0.979-0.289-2.085-0.744-2.085-2.098v-0.025
		c0-1.42,1.146-2.217,2.553-2.217c0.884,0,1.849,0.301,2.605,0.809l-0.757,1.367c-0.688-0.402-1.379-0.652-1.887-0.652
		c-0.482,0-0.729,0.209-0.729,0.484v0.025c0,0.389,0.662,0.572,1.419,0.832c0.977,0.326,2.109,0.797,2.109,2.072v0.027
		c0,1.547-1.159,2.252-2.67,2.252C288.358,95.631,287.266,95.305,286.342,94.576"/>
</g>
</svg>
